# xmcd CD database file
# Generated: Sat Dec 21 17:27:05 2002 by KSCD
# 
# Track frame offsets:
#       150
#       11939
#       24188
#       42483
#       56767
#       70996
#       79074
#       94635
#       105293
#       123891
#       133813
#       145373
#       157101
#       173241
#       191405
#       208866
#
# Disc length: 3229 seconds
#
# Revision: 1
# Processed by: cddbd v1.4PL0 Copyright (c) Steve Scherf et al.
# Submitted via: Kscd 1.3.3
#
DISCID=e00c9b10
DTITLE=Klez - 15 písní o lásce
DYEAR=1900
DGENRE=
TTITLE0=Elimee (Rabbi Elimeylekh)
TTITLE1=Brandvajn (Vie Tsvie Is Naftule Driter)
TTITLE2=?mastafara
TTITLE3=Oj
TTITLE4=Zlod?jská (Na Barbude)
TTITLE5=Di Mame (Di Mame Iz Gegangen)
TTITLE6=Buhu?er (Buhusher Khosid)
TTITLE7=Moje milá
TTITLE8=Ode?la láska (Kajo Berge)
TTITLE9=Levicová (Ale Brider)
TTITLE10=Nudle (Nudl, Nudl Un A Nudl)
TTITLE11=Sedí Dove (Shprayz Ich Mir)
TTITLE12=Boty (Di Saposhekelach)
TTITLE13=Jo?ka (Joschke Fort Avec)
TTITLE14=Bláznivý krej?í (Scheider Schneider)
TTITLE15=
EXTD=
EXTT0=
EXTT1=
EXTT2=
EXTT3=
EXTT4=
EXTT5=
EXTT6=
EXTT7=
EXTT8=
EXTT9=
EXTT10=
EXTT11=
EXTT12=
EXTT13=
EXTT14=
EXTT15=
PLAYORDER=
